<svg xmlns="http://www.w3.org/2000/svg" viewBox="0 0 140 40">
  <rect width="140" height="40" rx="12" ry="12" fill="#0d1b3d"/>
  <path d="M34 28.5l5.7-15h4.4l5.7 15h-4.4l-0.8-2.4h-5.5l-0.8 2.4zm6.6-5.6h3.2l-1.6-4.9h-0.1zm14.1-9.4h7.4c4 0 6.4 2 6.4 5.3 0 2.1-1.1 3.7-3 4.5l3.8 5.4h-4.8l-3.2-4.7h-2v4.7h-4.6zm7.2 7.1c1.4 0 2.2-0.7 2.2-1.9s-0.8-1.9-2.2-1.9h-2.6v3.8zM69.4 21.6c0-3.5 2.5-6.1 6-6.1 3.7 0 6.1 2.6 6.1 6.1 0 3.6-2.5 6.1-6.1 6.1-3.5 0-6-2.5-6-6.1zm7.4 0c0-1.6-0.9-2.7-2.3-2.7-1.4 0-2.3 1.1-2.3 2.7 0 1.6 0.9 2.7 2.3 2.7 1.4 0 2.3-1.1 2.3-2.7zm7.8-6h4.6v1.6c0.8-1.2 2-1.8 3.5-1.8 2.6 0 4.2 1.6 4.2 4.4v8.1h-4.6v-7c0-1-0.6-1.6-1.5-1.6s-1.6 0.6-1.6 1.6v7h-4.6z" fill="#ffffff"/>
  <path d="M109.8 28.6c4.7-1.5 8.7-4.8 11.1-9.3-3 1.8-6.6 2.8-10.4 2.8-2.5 0-4.8-0.4-7-1.1-0.7-0.2-1.4 0.5-0.9 1.2 1.7 2.6 4.1 4.7 7.2 6.4z" fill="#1478ff"/>
</svg>
