<svg xmlns="http://www.w3.org/2000/svg" viewBox="0 0 140 40">
  <rect width="140" height="40" rx="12" ry="12" fill="#0a1a4a"/>
  <path d="M25 26c5.8-7.6 15.6-12.4 27.2-12.4 10.6 0 20 3.9 26.2 10.4" stroke="#4f9bf6" stroke-width="3.5" fill="none" stroke-linecap="round"/>
  <path d="M38 28l6.4-8.6h4.5L43 28h3.5v3.4H38V28zm19.2-4.2c0-2.6 2.5-4.7 5.6-4.7 3.2 0 5.7 2.1 5.7 4.7 0 2.6-2.5 4.7-5.7 4.7-3.1 0-5.6-2.1-5.6-4.7zm7.7 0c0-1.5-0.9-2.3-2.1-2.3s-2.1 0.9-2.1 2.3c0 1.4 0.9 2.3 2.1 2.3 1.2 0 2.1-0.9 2.1-2.3zm13.3-2.4c-0.7-0.6-1.8-1-3.1-1-2.9 0-5 2-5 4.7 0 2.9 2.1 4.7 5 4.7 1.1 0 2.3-0.3 3.1-1v-2.9c-0.6 0.6-1.5 1-2.5 1s-1.7-0.5-1.9-1.5h6.1c0.2-0.3 0.2-0.9 0.2-1.4 0-1.4-0.6-2.8-1.9-3.6zm-4.3 3h3.2c0-0.8-0.5-1.4-1.6-1.4-1 0-1.6 0.6-1.6 1.4zm11.3-3.2l-0.4 1.5c0.8-1 1.9-1.6 3.3-1.6 2.2 0 3.7 1.4 3.7 3.6v6.5H88v-5.9c0-1-0.6-1.6-1.6-1.6-1 0-1.8 0.6-2.3 1.6v5.9h-3.6V22.1h3.6z" fill="#ffffff"/>
</svg>
