<svg xmlns="http://www.w3.org/2000/svg" viewBox="0 0 140 40">
  <rect width="140" height="40" rx="12" ry="12" fill="#0b253a"/>
  <path d="M35 27.5V15.8h5.4c3 0 4.8 1.3 4.8 3.9 0 2.6-1.8 3.9-4.8 3.9h-1.9v4z" fill="#00a8e1"/>
  <path d="M50.6 15.8h3.6v11.7h-3.6zm5.9 5.8c0-3.4 2.5-6 6.1-6 3.7 0 6.1 2.6 6.1 6 0 3.5-2.5 6-6.1 6-3.6 0-6.1-2.5-6.1-6zm8.5 0c0-1.5-1-2.7-2.4-2.7-1.4 0-2.4 1.1-2.4 2.7 0 1.5 1 2.7 2.4 2.7 1.4 0 2.4-1.1 2.4-2.7zm10.4-2.4c-0.4-0.4-1.1-0.7-1.8-0.7-1.1 0-1.9 0.7-1.9 2.2v5h-3.6V15.8h3.6v1.5c0.7-1.1 2-1.7 3.3-1.7 1 0 1.7 0.2 2.4 0.6z" fill="#ffffff"/>
  <path d="M93 23.7c4.7 0.9 9.3 0.1 13.7-2.2-4.9 4.7-11.6 6.8-18.7 5.5-1.6-0.3-3.2-0.8-4.7-1.5-0.6-0.3-0.6-1.1 0.1-1.3 3.4-1.1 6.6-1.3 9.6-0.5z" fill="#00a8e1"/>
</svg>
